<svg xmlns="http://www.w3.org/2000/svg" viewBox="0 0 212 241.74"><title>bin</title><g id="Layer_2" data-name="Layer 2"><g id="Layer_1-2" data-name="Layer 1"><path d="M70.08,100.82c-4.88,0-8.84,4.29-8.84,9.59V205.6c0,5.29,4,9.58,8.84,9.58s8.83-4.29,8.83-9.58V110.41C78.91,105.11,75,100.82,70.08,100.82Z"/><path d="M97.17,110.41V205.6c0,5.29,4,9.58,8.83,9.58s8.83-4.29,8.83-9.58V110.41c0-5.3-4-9.59-8.83-9.59S97.17,105.11,97.17,110.41Z"/><path d="M142.51,215.18c4.88,0,8.83-4.29,8.83-9.58V110.41c0-5.3-4-9.59-8.83-9.59s-8.83,4.29-8.83,9.59V205.6C133.68,210.89,137.63,215.18,142.51,215.18Z"/><path d="M7.36,55.89H204.64a7.37,7.37,0,0,0,5.2-12.58C190.55,24.08,157,1.25,106,0,55,1.25,21.45,24.08,2.16,43.31a7.37,7.37,0,0,0,5.2,12.58ZM106,14.73c35.06.95,60.9,13.07,78.87,26.44H27.13C45.1,27.8,70.94,15.68,106,14.73Z"/><path d="M204.64,69.38H7.36a7.36,7.36,0,0,0,0,14.72h18V227A14.72,14.72,0,0,0,40,241.74H172A14.72,14.72,0,0,0,186.68,227V84.1h18a7.36,7.36,0,1,0,0-14.72ZM172,227H40V84.1H172Z"/></g></g></svg>